<svg width="465" height="45" viewBox="0 0 465 45" fill="none" xmlns="http://www.w3.org/2000/svg">
<path d="M11.1415 43.1669L14.2049 33.7393L28.9892 33.7205L32.0766 43.1402L41.1617 43.1287L27.0025 2.29209L16.1117 2.30595L2 43.1785L11.1415 43.1669ZM16.3408 27.1344L21.4277 11.4971L21.7098 11.4968L26.8365 27.1211L16.3408 27.1344ZM54.2012 2.25749L45.7368 2.26826L45.7888 43.1228L54.2532 43.112L54.2012 2.25749ZM101.732 16.4171L110.31 16.4062C109.169 7.01223 102.052 1.63232 92.6285 1.64431C81.8506 1.65802 73.6217 9.31462 73.6387 22.6601C73.6556 35.9491 81.763 43.6413 92.682 43.6274C103.065 43.6142 109.404 36.7218 110.326 29.1591L101.749 29.1136C100.936 33.5443 97.4406 36.0881 92.7853 36.1222C86.5498 36.1019 82.2835 31.452 82.2723 22.6491C82.2614 14.0437 86.4592 9.18543 92.8074 9.14914C97.5757 9.17128 101.05 11.9037 101.732 16.4171ZM153.655 22.5582C153.638 9.21281 145.361 1.57721 134.555 1.59096C123.664 1.60482 115.436 9.26142 115.453 22.6069C115.469 35.8959 123.718 43.5879 134.609 43.5741C145.415 43.5603 153.672 35.9037 153.655 22.5582ZM124.086 22.5959C124.075 13.8494 128.217 9.1323 134.565 9.09601C140.857 9.11622 145.038 13.8227 145.021 22.5692C145.061 31.2875 140.891 36.0328 134.599 36.069C128.251 36.0489 124.097 31.3141 124.086 22.5959ZM159.723 2.12323L159.775 42.9778L168.014 42.9673L167.98 16.1071L168.318 16.1067L179.017 42.784L184.66 42.7768L195.291 16.1852L195.63 16.1848L195.664 42.9321L203.903 42.9216L203.851 2.06709L193.355 2.08044L182.048 29.8015L181.596 29.802L170.219 2.10988L159.723 2.12323ZM210.787 42.9128L219.251 42.9021L219.234 29.5849L226.57 29.5755C235.994 29.5635 241.404 23.942 241.393 15.788C241.383 7.74687 236.043 2.02613 226.761 2.03794L210.735 2.05833L210.787 42.9128ZM219.226 22.757L219.208 8.98831L225.19 8.9807C230.212 9.00253 232.67 11.7362 232.647 15.7991C232.68 19.9184 230.229 22.743 225.207 22.7494L219.226 22.757ZM246.789 42.867L274.269 42.8321L274.261 35.8349L255.244 35.8591L255.231 25.9276L272.781 25.9053L272.772 18.9081L255.222 18.9304L255.21 8.99894L274.17 8.97481L274.161 1.97763L246.737 2.01252L246.789 42.867ZM279.192 8.96842L291.719 8.95248L291.762 42.8098L300.17 42.7991L300.127 8.94179L312.654 8.92585L312.646 1.92866L279.183 1.97124L279.192 8.96842ZM326.358 1.91122L317.893 1.92199L317.945 42.7765L326.41 42.7657L326.358 1.91122ZM331.671 8.90165L344.198 8.88571L344.241 42.7431L352.649 42.7324L352.606 8.87502L365.133 8.85908L365.124 1.86189L331.662 1.90447L331.671 8.90165ZM378.837 1.84445L370.372 1.85522L370.424 42.7097L378.889 42.699L378.837 1.84445ZM423.159 22.2153C423.142 8.86991 414.866 1.23432 404.06 1.24807C393.169 1.26192 384.94 8.91852 384.957 22.264C384.974 35.553 393.222 43.245 404.113 43.2312C414.919 43.2174 423.176 35.5608 423.159 22.2153ZM393.591 22.253C393.579 13.5065 397.721 8.7894 404.069 8.75311C410.361 8.77332 414.543 13.4798 414.526 22.2263C414.565 30.9446 410.395 35.6899 404.104 35.7261C397.755 35.706 393.602 30.9712 393.591 22.253ZM463.311 1.73697L454.903 1.74767L454.936 27.705L454.541 27.7055L436.676 1.77086L429.228 1.78033L429.28 42.6349L437.744 42.6241L437.711 16.6668L438.049 16.6664L456.027 42.6008L463.363 42.5915L463.311 1.73697Z" stroke="black" stroke-width="1"/>
</svg>
