<svg width="298" height="57" viewBox="0 0 298 57" fill="none" xmlns="http://www.w3.org/2000/svg">
<path d="M15.7031 43.9505C28.1739 43.9346 35.6973 36.2225 35.6528 23.4413C35.6649 10.7166 28.1219 3.08006 15.8204 3.09571L1.26172 3.11423L1.3137 43.9688L15.7031 43.9505ZM9.76877 36.6787L9.73532 10.3828L15.3782 10.3756C23.109 10.3658 27.1769 14.3671 27.1885 23.4521C27.2002 32.6218 23.1424 36.6616 15.3552 36.6716L9.76877 36.6787ZM40.1823 35.3421C40.2182 41.4082 44.539 44.5063 50.4076 44.4706C54.9501 44.493 57.8819 42.4861 59.3737 39.6627L59.5994 39.6624L59.6048 43.8946L67.5048 43.8845L67.4785 23.2316C67.4973 15.8393 61.1735 12.8567 54.4867 12.8652C46.3609 12.8755 41.739 17.0571 41.2379 22.3621L49.1944 22.352C49.6432 20.2635 51.4191 18.9916 54.2687 18.9598C57.4005 18.984 59.1517 20.4489 59.1832 23.0164L59.1863 25.4993C57.8886 25.5574 53.7695 25.7601 51.5689 25.904C45.6726 26.2783 40.2018 28.5142 40.1823 35.3421ZM48.1949 35.1062C48.1919 32.7362 50.0241 31.3513 52.9298 31.0937C54.3404 30.9791 57.9234 30.777 59.193 30.7189L59.1958 32.9479C59.2282 36.1925 56.5792 38.6788 52.7702 38.7118C50.0898 38.687 48.1979 37.448 48.1949 35.1062ZM89.9809 13.215L84.2252 13.2223L84.2159 5.88657L75.8644 5.89719L75.8737 13.233L71.6415 13.2383L71.6495 19.5019L75.8817 19.4966L75.9022 35.6352C75.8534 41.5885 79.9761 44.2919 86.014 44.256C88.0737 44.2816 89.5688 44.1104 90.4715 43.9682L90.4631 37.366C89.4475 37.4519 87.9804 37.5384 87.134 37.5395C85.4411 37.4852 84.2271 36.8943 84.2522 34.4396L84.2332 19.4859L89.9889 19.4786L89.9809 13.215ZM108.812 44.4527C116.373 44.4149 121.447 40.7405 122.625 35.0679L114.668 35.078C113.852 36.913 111.822 38.157 108.973 38.1889C104.656 38.1662 101.916 35.32 101.91 30.6928L122.845 30.6662L122.842 28.2962C122.829 17.8568 116.474 12.7863 108.433 12.7965C99.4605 12.8079 93.6283 19.22 93.6685 28.6719C93.6526 38.3777 99.4161 44.4364 108.812 44.4527ZM101.903 25.4449C102.068 21.9179 104.773 19.0366 108.61 19.0599C112.334 19.027 114.905 21.7041 114.938 25.4283L101.903 25.4449ZM133.019 44.309C135.53 44.3059 137.7 42.187 137.697 39.5631C137.694 36.9673 135.518 34.854 133.007 34.8854C130.355 34.8606 128.214 36.9794 128.273 39.5751C128.22 42.1991 130.367 44.3124 133.019 44.309ZM152.746 26.0574C152.741 22.0227 155.136 19.6779 158.607 19.6735C162.077 19.669 164.112 21.9236 164.145 25.7043L164.168 43.7616L172.463 43.751L172.438 24.2266C172.457 17.0883 168.276 12.7204 161.871 12.7285C157.328 12.7343 154.058 14.9674 152.68 18.496L152.342 18.4964L152.335 13.1357L144.378 13.1458L144.417 43.7867L152.769 43.7761L152.746 26.0574ZM192.721 44.3459C202.004 44.3059 207.752 37.9503 207.768 28.4703C207.727 19.0184 201.964 12.6775 192.681 12.6893C183.427 12.7011 177.651 19.0567 177.691 28.5085C177.675 37.9886 183.467 44.3295 192.721 44.3459ZM186.155 28.4978C186.149 23.1088 188.372 19.0713 192.746 19.0657C197.006 19.0603 199.268 23.0921 199.247 28.4811C199.282 33.8418 197.03 37.8229 192.77 37.8565C188.396 37.8339 186.162 33.8585 186.155 28.4978ZM218.283 43.6927L227.142 43.6814L232.422 24.2067L232.817 24.2062L238.146 43.6674L246.949 43.6562L255.318 13.0046L246.853 13.0154L242.139 33.618L241.857 33.6183L236.753 13.0283L228.457 13.0388L223.462 33.7546L223.18 33.755L218.357 13.0517L209.892 13.0624L218.283 43.6927ZM260.81 28.0642C260.852 38.701 264.136 47.528 269.535 55.139L277.491 55.1289C273.591 49.4627 269.513 38.1821 269.5 28.0531C269.488 17.9524 273.536 6.6332 277.423 1.01357L269.466 1.02369C264.087 8.62024 260.825 17.4555 260.81 28.0642ZM296.812 28.0184C296.77 17.4098 293.486 8.58283 288.088 1L280.131 1.01012C284.032 6.61984 288.109 17.9287 288.122 28.0294C288.135 38.1584 284.086 49.4494 280.2 55.1254L288.156 55.1153C293.536 47.4906 296.797 38.6553 296.812 28.0184Z" stroke="black" stroke-width="1"/>
</svg>
