<svg width="33" height="33" viewBox="0 0 33 33" fill="none" xmlns="http://www.w3.org/2000/svg">
<g clip-path="url(#clip0_9_123)">
<path d="M16.5936 3.49082C20.8028 3.49082 21.3014 3.50684 22.9636 3.58268C24.5006 3.65283 25.3353 3.90964 25.8909 4.12546C26.6266 4.41143 27.1518 4.7531 27.7034 5.3047C28.255 5.85631 28.5967 6.3815 28.8826 7.11727C29.0985 7.67281 29.3553 8.50751 29.4255 10.0444C29.5013 11.7067 29.5173 12.2053 29.5173 16.4145C29.5173 20.6237 29.5013 21.1222 29.4255 22.7845C29.3553 24.3215 29.0985 25.1562 28.8826 25.7117C28.5967 26.4475 28.255 26.9727 27.7034 27.5243C27.1518 28.0759 26.6266 28.4176 25.8909 28.7035C25.3353 28.9194 24.5006 29.1762 22.9636 29.2463C21.3016 29.3222 20.8031 29.3382 16.5936 29.3382C12.3842 29.3382 11.8856 29.3222 10.2236 29.2463C8.68665 29.1762 7.85195 28.9194 7.29647 28.7035C6.56064 28.4176 6.03544 28.0759 5.48384 27.5243C4.93223 26.9727 4.59057 26.4475 4.30466 25.7117C4.08878 25.1562 3.83197 24.3215 3.76182 22.7846C3.68598 21.1222 3.66996 20.6237 3.66996 16.4145C3.66996 12.2053 3.68598 11.7067 3.76182 10.0445C3.83197 8.50751 4.08878 7.67281 4.30466 7.11727C4.59057 6.3815 4.93223 5.85631 5.48384 5.3047C6.03544 4.7531 6.56064 4.41143 7.29647 4.12546C7.85195 3.90964 8.68664 3.65283 10.2236 3.58268C11.8859 3.50684 12.3844 3.49082 16.5936 3.49082ZM16.5936 0.650391C12.3123 0.650391 11.7756 0.668538 10.0942 0.745255C8.41619 0.821848 7.27031 1.08829 6.26753 1.47802C5.23091 1.88088 4.35178 2.4199 3.47541 3.29627C2.59904 4.17265 2.06001 5.05177 1.65715 6.0884C1.26743 7.09117 1.00098 8.23706 0.924392 9.91502C0.847674 11.5964 0.82959 12.1332 0.82959 16.4145C0.82959 20.6958 0.847674 21.2326 0.924392 22.914C1.00098 24.5919 1.26743 25.7378 1.65715 26.7406C2.06001 27.7772 2.59904 28.6564 3.47541 29.5327C4.35178 30.4091 5.23091 30.9481 6.26753 31.351C7.27031 31.7407 8.41619 32.0072 10.0942 32.0837C11.7756 32.1605 12.3123 32.1785 16.5936 32.1785C20.8749 32.1785 21.4118 32.1605 23.0931 32.0837C24.7711 32.0072 25.917 31.7407 26.9197 31.351C27.9564 30.9481 28.8355 30.4091 29.7119 29.5327C30.5882 28.6564 31.1273 27.7772 31.5301 26.7406C31.9198 25.7378 32.1863 24.5919 32.2629 22.914C32.3396 21.2326 32.3577 20.6958 32.3577 16.4145C32.3577 12.1332 32.3396 11.5964 32.2629 9.91502C32.1863 8.23706 31.9198 7.09117 31.5301 6.0884C31.1273 5.05177 30.5882 4.17265 29.7119 3.29627C28.8355 2.4199 27.9564 1.88088 26.9197 1.47802C25.917 1.08829 24.7711 0.821848 23.0931 0.745255C21.4118 0.668538 20.8749 0.650391 16.5936 0.650391ZM16.5936 8.31941C12.1229 8.31941 8.49854 11.9437 8.49854 16.4145C8.49854 20.8853 12.1229 24.5096 16.5936 24.5096C21.0644 24.5096 24.6887 20.8853 24.6887 16.4145C24.6887 11.9437 21.0644 8.31941 16.5936 8.31941ZM16.5936 21.6692C13.6916 21.6692 11.3389 19.3166 11.3389 16.4145C11.3389 13.5124 13.6916 11.1598 16.5936 11.1598C19.4957 11.1598 21.8484 13.5124 21.8484 16.4145C21.8484 19.3166 19.4957 21.6692 16.5936 21.6692ZM26.9002 7.99958C26.9002 9.04434 26.0533 9.89131 25.0086 9.89131C23.9638 9.89131 23.1168 9.04434 23.1168 7.99958C23.1168 6.95482 23.9638 6.10792 25.0086 6.10792C26.0533 6.10792 26.9002 6.95482 26.9002 7.99958Z" fill="black"/>
</g>
<defs>
<clipPath id="clip0_9_123">
<rect width="31.5282" height="31.5282" fill="white" transform="translate(0.82959 0.650391)"/>
</clipPath>
</defs>
</svg>
