<svg width="34" height="32" viewBox="0 0 34 32" fill="none" xmlns="http://www.w3.org/2000/svg">
<path d="M16.9767 0C7.60066 0 0 6.03039 0 13.4691C0 18.2784 3.17758 22.4984 7.9575 24.8813C7.69746 25.7837 6.28644 30.6868 6.23028 31.072C6.23028 31.072 6.1965 31.3614 6.38275 31.4718C6.569 31.5822 6.78807 31.4964 6.78807 31.4964C7.32218 31.4213 12.9818 27.421 13.9614 26.7264C14.94 26.8658 15.9476 26.9383 16.9767 26.9383C26.3527 26.9383 33.9534 20.908 33.9534 13.4691C33.9534 6.03039 26.3527 0 16.9767 0Z" fill="black"/>
<path d="M7.53251 18.1894C6.98897 18.1894 6.54695 17.7592 6.54695 17.2303V11.2637H5.00915C4.4758 11.2637 4.04199 10.8225 4.04199 10.2803C4.04199 9.73811 4.47597 9.29688 5.00915 9.29688H10.0559C10.5892 9.29688 11.023 9.73811 11.023 10.2803C11.023 10.8225 10.589 11.2637 10.0559 11.2637H8.51807V17.2303C8.51807 17.7592 8.07604 18.1894 7.53251 18.1894ZM16.1745 18.1764C15.7636 18.1764 15.4492 18.0063 15.3544 17.7328L14.8664 16.4308L11.8611 16.4307L11.3727 17.7335C11.2783 18.0065 10.9641 18.1764 10.5531 18.1764C10.3369 18.1766 10.1232 18.1293 9.92659 18.0378C9.65491 17.9101 9.39373 17.5589 9.69301 16.6116L12.0505 10.2883C12.2165 9.80741 12.721 9.31194 13.3629 9.29704C14.0066 9.31177 14.5111 9.80741 14.6775 10.2893L17.0339 16.6098C17.3339 17.5592 17.0727 17.9106 16.801 18.0379C16.6043 18.1293 16.3907 18.1765 16.1745 18.1764ZM14.3481 14.6518L13.3637 11.802L12.3793 14.6518H14.3481ZM18.62 18.043C18.0992 18.043 17.6755 17.6298 17.6755 17.1223V10.3012C17.6755 9.74732 18.1269 9.29688 18.6816 9.29688C19.2363 9.29688 19.6877 9.74732 19.6877 10.3012V16.2017H21.782C22.3029 16.2017 22.7265 16.6148 22.7265 17.1223C22.7265 17.6298 22.3029 18.043 21.782 18.043H18.62ZM24.0955 18.1764C23.5519 18.1764 23.1099 17.7259 23.1099 17.172V10.3012C23.1099 9.74732 23.5519 9.29688 24.0955 9.29688C24.639 9.29688 25.081 9.74732 25.081 10.3012V12.4599L27.8307 9.65777C27.9721 9.51364 28.1665 9.4343 28.3774 9.4343C28.6234 9.4343 28.8705 9.54244 29.0556 9.73092C29.2282 9.90667 29.3312 10.1328 29.3454 10.3677C29.3596 10.6045 29.2823 10.8216 29.1279 10.9791L26.882 13.2675L29.3079 16.5427C29.3862 16.6477 29.4433 16.7676 29.4758 16.8953C29.5083 17.0231 29.5155 17.1561 29.4971 17.2867C29.4796 17.4174 29.4367 17.5432 29.3711 17.6569C29.3054 17.7706 29.2183 17.8699 29.1147 17.9491C28.9443 18.0811 28.736 18.1523 28.5219 18.1518C28.3692 18.1525 28.2185 18.1168 28.0818 18.0474C27.945 17.9781 27.8262 17.8771 27.7346 17.7525L25.4233 14.6317L25.0813 14.9802V17.1715C25.081 17.4379 24.9771 17.6933 24.7923 17.8817C24.6074 18.07 24.3569 18.176 24.0955 18.1764Z" fill="white"/>
</svg>
