<svg width="208" height="56" viewBox="0 0 208 56" fill="none" xmlns="http://www.w3.org/2000/svg">
<path d="M24.1543 14.111L24.2017 14.559L24.6522 14.5585L32.778 14.5481L33.2858 14.5475L33.2772 14.0397C33.2138 10.2822 31.627 7.08398 28.875 4.83517C26.13 2.59211 22.2561 1.31641 17.6382 1.32229C13.0785 1.32809 9.09191 2.59148 6.23833 4.83999C3.37598 7.09539 1.67363 10.3294 1.693 14.2015C1.6972 17.3252 2.81208 19.8117 4.83511 21.7258C6.84298 23.6254 9.71641 24.9348 13.2049 25.7879L13.2073 25.7885L17.6637 26.8543C17.6642 26.8544 17.6647 26.8545 17.6652 26.8547C19.8872 27.4002 21.5612 27.981 22.6749 28.7368C23.7556 29.4702 24.2851 30.3484 24.2867 31.5519C24.2884 32.8981 23.6619 34.0365 22.506 34.8561C21.3376 35.6847 19.6143 36.1929 17.4568 36.1956C15.2701 36.1984 13.4368 35.6943 12.1284 34.74C10.8344 33.7962 10.013 32.3838 9.87901 30.4639L9.84651 29.9981L9.37958 29.9987L1.14097 30.0092L0.626287 30.0099L0.64183 30.5243C0.77822 35.0387 2.47397 38.5202 5.44789 40.8562C8.40677 43.1805 12.5731 44.326 17.58 44.3055C22.6334 44.3132 26.6964 43.0989 29.5096 40.8748C32.3363 38.6401 33.8542 35.4216 33.8639 31.5416L33.8639 31.5376C33.8446 27.9916 32.4651 25.2709 30.1762 23.2424C27.9047 21.2292 24.7602 19.9161 21.2187 19.1064L17.5534 18.2092L17.5535 18.209L17.5432 18.2068C15.7947 17.8174 14.2245 17.3063 13.1034 16.5599C12.0035 15.8276 11.3719 14.8981 11.3823 13.629C11.3933 12.4372 11.9187 11.4115 12.9334 10.6681C13.9611 9.91527 15.5181 9.43504 17.5921 9.4324C19.5952 9.42985 21.1607 9.88484 22.254 10.681C23.3355 11.4687 23.9968 12.6195 24.1543 14.111ZM47.539 2.34853L47.5383 1.84853L47.0383 1.84917L38.6869 1.85979L38.1869 1.86043L38.1875 2.36043L38.2395 43.215L38.2401 43.715L38.7401 43.7143L47.0916 43.7037L47.5916 43.7031L47.591 43.2031L47.539 2.34853ZM81.7653 34.5154L81.8904 33.9129L81.2751 33.9137L73.3186 33.9238L72.9942 33.9242L72.8624 34.2207C72.1471 35.8293 70.3313 37.0032 67.6223 37.0347C65.5786 37.023 63.9544 36.3464 62.8386 35.1693C61.8051 34.0791 61.1666 32.5158 61.0728 30.5379L81.4965 30.512L81.9965 30.5113L81.9958 30.0113L81.9928 27.6413C81.9861 22.3182 80.36 18.3024 77.6506 15.6183C74.9436 12.9365 71.2084 11.6371 67.0831 11.6423C62.4723 11.6482 58.6333 13.3021 55.9548 16.2005C53.2799 19.095 51.7993 23.1901 51.8195 28.0183C51.8117 32.9691 53.2792 37.0445 56.0006 39.8874C58.7246 42.733 62.6539 44.2902 67.4617 44.2985L67.4651 44.2985C75.1901 44.2598 80.5262 40.4833 81.7653 34.5154ZM61.0985 24.29C61.4791 21.2594 63.8974 18.8853 67.2579 18.9057L67.2654 18.9057C69.002 18.8903 70.4424 19.5045 71.4529 20.5316C72.3661 21.4599 72.9509 22.7488 73.0678 24.2748L61.0985 24.29ZM114.945 34.4731L115.071 33.8707L114.455 33.8715L106.499 33.8816L106.174 33.882L106.043 34.1785C105.327 35.7871 103.511 36.961 100.803 36.9924C98.7588 36.9808 97.1346 36.3042 96.0188 35.1271C94.9853 34.0369 94.3468 32.4735 94.253 30.4957L114.677 30.4697L115.177 30.4691L115.176 29.9691L115.173 27.5991C115.166 22.276 113.54 18.2602 110.831 15.5761C108.124 12.8943 104.389 11.5948 100.263 11.6001C95.6525 11.606 91.8135 13.2598 89.1349 16.1583C86.4602 19.0526 84.9796 23.1475 84.9997 27.9754C84.9918 32.9265 86.4593 37.0022 89.1808 39.8452C91.9048 42.6908 95.8341 44.248 100.642 44.2563L100.645 44.2563C108.37 44.2176 113.706 40.4411 114.945 34.4731ZM94.2787 24.2478C94.6593 21.2172 97.0776 18.843 100.438 18.8635L100.446 18.8635C102.182 18.8481 103.623 19.4623 104.633 20.4894C105.546 21.4176 106.131 22.7066 106.248 24.2326L94.2787 24.2478ZM119.455 54.6231L119.456 55.1231L119.956 55.1225L128.307 55.1119L128.807 55.1112L128.807 54.6112L128.788 39.7159C130.257 41.9733 132.879 44.1024 137.266 44.0968C140.905 44.0922 144.157 42.6381 146.486 39.8465C148.808 37.0617 150.18 32.9859 150.159 27.7796C150.166 22.4447 148.726 18.3844 146.365 15.651C144 12.9124 140.745 11.5486 137.224 11.5531C134.536 11.5565 132.532 12.355 131.047 13.4983C129.998 14.3051 129.222 15.2733 128.645 16.2282L128.64 12.459L128.64 11.959L128.14 11.9596L119.901 11.9701L119.401 11.9707L119.402 12.4707L119.455 54.6231ZM140.638 27.7333L140.638 27.7386C140.656 30.3845 140.099 32.5665 139.069 34.0755C138.054 35.5635 136.564 36.4251 134.604 36.4416C132.699 36.4301 131.22 35.599 130.202 34.1274C129.169 32.6356 128.593 30.4557 128.603 27.7538L128.603 27.7487C128.586 25.06 129.15 22.9165 130.172 21.4595C131.18 20.0231 132.655 19.2175 134.582 19.2151C136.575 19.2125 138.067 20.0535 139.076 21.5084C140.1 22.9849 140.649 25.1285 140.638 27.7333ZM183.281 34.3862L183.406 33.7838L182.791 33.7845L174.834 33.7947L174.51 33.7951L174.378 34.0915C173.663 35.7001 171.847 36.8741 169.138 36.9055C167.094 36.8938 165.47 36.2172 164.354 35.0402C163.321 33.9499 162.682 32.3866 162.588 30.4088L183.012 30.3828L183.512 30.3822L183.511 29.8822L183.508 27.5122C183.502 22.189 181.876 18.1732 179.166 15.4892C176.459 12.8074 172.724 11.5079 168.599 11.5131C163.988 11.519 160.149 13.1729 157.47 16.0713C154.795 18.966 153.315 23.0613 153.335 27.8898C153.327 32.8403 154.795 36.9155 157.516 39.7582C160.24 42.6038 164.169 44.161 168.977 44.1693L168.981 44.1693C176.706 44.1307 182.042 40.3541 183.281 34.3862ZM162.614 24.1609C162.995 21.1302 165.413 18.7561 168.774 18.7766L168.781 18.7765C170.518 18.7612 171.958 19.3753 172.968 20.4025C173.882 21.3307 174.467 22.6196 174.583 24.1456L162.614 24.1609ZM187.776 43.0247L187.777 43.5247L188.277 43.5241L196.628 43.5134L197.128 43.5128L197.128 43.0128L197.105 25.5763L197.105 25.5725C197.075 22.1184 199.619 19.6966 203.144 19.6921C204.271 19.6907 205.823 19.8838 206.546 20.1152L207.199 20.3243L207.199 19.6384L207.189 12.1898L207.189 11.792L206.801 11.7031C206.025 11.5251 204.915 11.4105 204.036 11.4116C200.915 11.4156 198.249 12.9782 196.811 15.8849L196.806 12.3723L196.806 11.8723L196.306 11.8729L188.236 11.8832L187.736 11.8838L187.737 12.3838L187.776 43.0247Z" stroke="black"/>
</svg>
