<svg width="285" height="43" viewBox="0 0 285 43" fill="none" xmlns="http://www.w3.org/2000/svg">
<path d="M1.0089 8.05656L13.5361 8.04062L13.5792 41.898L21.9871 41.8873L21.944 8.02992L34.4712 8.01398L34.4623 1.0168L1 1.05938L1.0089 8.05656ZM47.9218 24.1356C47.9167 20.1009 50.3684 17.756 53.8952 17.7515C57.3938 17.747 59.4281 19.9734 59.4329 23.7823L59.4559 41.8396L67.8074 41.829L67.7825 22.3046C67.7734 15.1099 63.5639 10.7984 57.1592 10.8066C52.5039 10.8125 49.4312 12.9889 48.0251 16.5739L47.6865 16.5744L47.6667 1L39.5409 1.01034L39.5929 41.8649L47.9444 41.8542L47.9218 24.1356ZM88.1226 42.4238C95.684 42.386 100.758 38.7117 101.936 33.039L93.9792 33.0492C93.1634 34.8842 91.1335 36.1282 88.2839 36.16C83.967 36.1373 81.2266 33.2911 81.2207 28.6639L102.156 28.6373L102.153 26.2673C102.14 15.8279 95.7848 10.7574 87.7437 10.7677C78.7715 10.7791 72.9393 17.1912 72.9795 26.643C72.9636 36.3488 78.7271 42.4076 88.1226 42.4238ZM81.214 23.4161C81.3788 19.889 84.0838 17.0077 87.921 17.031C91.6452 16.9981 94.2162 19.6752 94.2491 23.3995L81.214 23.4161ZM134.62 42.3647C142.181 42.3268 147.255 38.6525 148.433 32.9799L140.477 32.99C139.661 34.825 137.631 36.069 134.781 36.1009C130.464 36.0781 127.724 33.232 127.718 28.6048L148.653 28.5781L148.65 26.2081C148.637 15.7688 142.282 10.6983 134.241 10.7085C125.269 10.7199 119.437 17.132 119.477 26.5838C119.461 36.2896 125.225 42.3484 134.62 42.3647ZM127.711 23.3569C127.876 19.8299 130.581 16.9486 134.418 16.9719C138.143 16.9389 140.714 19.616 140.747 23.3403L127.711 23.3569ZM167.687 42.3226C175.813 42.284 180.914 37.5093 181.272 30.5681L173.428 30.5781C172.896 33.8234 170.726 35.6601 167.792 35.6638C163.729 35.669 161.129 32.2866 161.121 26.3616C161.114 20.5494 163.762 17.1885 167.768 17.1552C170.928 17.1794 172.906 19.2647 173.418 22.283L181.261 22.273C180.914 15.2481 175.547 10.6559 167.647 10.666C158.364 10.6778 152.617 17.118 152.657 26.4852C152.641 35.8242 158.292 42.3063 167.687 42.3226ZM200.247 42.2812C209.529 42.2412 215.277 35.8856 215.293 26.4055C215.253 16.9537 209.489 10.6128 200.207 10.6246C190.952 10.6363 185.176 16.9919 185.217 26.4438C185.2 35.9238 190.992 42.2647 200.247 42.2812ZM193.681 26.433C193.674 21.044 195.898 17.0065 200.271 17.001C204.531 16.9955 206.794 21.0273 206.772 26.4163C206.807 31.777 204.555 35.7581 200.295 35.7918C195.922 35.7691 193.688 31.7937 193.681 26.433ZM228.889 23.9053C228.884 19.8706 231.279 17.5258 234.75 17.5214C238.22 17.517 240.255 19.7715 240.288 23.5522L240.311 41.6095L248.606 41.5989L248.581 22.0745C248.6 14.9362 244.419 10.5683 238.014 10.5765C233.471 10.5822 230.201 12.8153 228.823 16.3439L228.485 16.3443L228.478 10.9836L220.521 10.9937L220.56 41.6346L228.912 41.624L228.889 23.9053ZM268.864 42.1939C278.147 42.1538 283.895 35.7983 283.911 26.3182C283.87 16.8664 278.107 10.5254 268.824 10.5373C259.57 10.549 253.794 16.9046 253.834 26.3564C253.818 35.8365 259.61 42.1774 268.864 42.1939ZM262.298 26.3457C262.292 20.9567 264.515 16.9192 268.889 16.9137C273.149 16.9082 275.411 20.94 275.39 26.329C275.425 31.6897 273.173 35.6708 268.913 35.7045C264.539 35.6818 262.305 31.7064 262.298 26.3457Z" stroke="black"/>
</svg>
