<svg width="150" height="55" viewBox="0 0 150 55" fill="none" xmlns="http://www.w3.org/2000/svg">
<path d="M29.2938 4.98621L29.2932 4.48621L28.7932 4.48684L4.92378 4.51721L4.42378 4.51785L4.42442 5.01785L4.43174 10.7736L4.43238 11.2736L4.93238 11.273L20.436 11.2532C19.0341 17.7374 12.9535 23.1373 1.78127 25.9795L1.18146 26.1321L1.45671 26.6864L4.22883 32.2694L4.40935 32.6329L4.80225 32.531C12.6799 30.4869 18.8114 27.1172 22.9734 22.4832C27.1423 17.8417 29.3027 11.9675 29.2938 4.98621ZM8.75703 39.6033L8.75766 40.1033L9.25766 40.1027L36.8593 40.0676L36.8761 53.2798L36.8767 53.7798L37.3767 53.7791L44.5996 53.77L45.0996 53.7693L45.099 53.2693L45.0743 33.8578L45.0736 33.3578L44.5736 33.3584L9.24914 33.4034L8.74914 33.404L8.74978 33.904L8.75703 39.6033ZM36.8488 31.8368L36.8494 32.3368L37.3494 32.3362L44.5723 32.327L45.0723 32.3263L45.0717 31.8263L45.0338 2.03187L45.0331 1.53187L44.5331 1.53251L37.3102 1.5417L36.8102 1.54233L36.8109 2.04233L36.8488 31.8368ZM82.2865 9.60239L82.2859 9.10239L81.7859 9.10302L70.718 9.11711L70.7099 2.73278L70.7092 2.23278L70.2092 2.23342L63.0427 2.24254L62.5427 2.24317L62.5434 2.74317L62.5515 9.1275L51.5964 9.14144L51.0964 9.14207L51.0971 9.64207L51.1044 15.3978L51.105 15.8978L51.605 15.8972L81.7945 15.8588L82.2945 15.8581L82.2939 15.3581L82.2865 9.60239ZM79.5481 30.4886L79.5481 30.4806C79.4801 23.126 74.0319 17.7182 66.6739 17.7559C59.2936 17.737 53.7664 23.1536 53.7758 30.5174C53.7851 37.7986 59.3276 43.2261 66.7044 43.246L66.7084 43.246C74.0628 43.2074 79.4987 37.7608 79.5481 30.4886ZM61.4909 30.5112L61.4908 30.5039C61.4753 28.7098 62.0432 27.2953 62.9597 26.3288C63.8751 25.3634 65.1712 24.8098 66.6829 24.7938C68.1946 24.8059 69.4921 25.3563 70.41 26.3194C71.3289 27.2835 71.9005 28.6965 71.8894 30.4906L71.8895 30.498C71.9051 32.3224 71.336 33.7264 70.4247 34.6654C69.5137 35.6039 68.2208 36.1195 66.7059 36.0953L66.6973 36.0952L66.6887 36.0954C65.1738 36.1234 63.8796 35.6111 62.9662 34.6748C62.0525 33.7382 61.4798 32.3357 61.4909 30.5112ZM80.2379 28.0573L80.2385 28.5573L80.7385 28.5566L87.2357 28.5484L87.2671 53.2721L87.2678 53.7721L87.7678 53.7715L94.8778 53.7624L95.3778 53.7618L95.3772 53.2618L95.3119 1.91147L95.3112 1.41147L94.8112 1.41211L87.7012 1.42116L87.2012 1.42179L87.2018 1.92179L87.227 21.7362L80.7298 21.7445L80.2298 21.7451L80.2305 22.2451L80.2379 28.0573ZM148.969 41.1178L148.969 40.6178L148.469 40.6184L101.463 40.6782L100.963 40.6789L100.964 41.1789L100.971 47.0475L100.972 47.5475L101.472 47.5468L148.477 47.487L148.977 47.4864L148.977 46.9864L148.969 41.1178ZM105.919 32.5953L105.919 33.0953L106.419 33.0947L143.211 33.0479L143.711 33.0473L143.71 32.5473L143.676 5.12282L143.675 4.62282L143.175 4.62346L136.008 4.63258L135.508 4.63321L135.509 5.13321L135.519 13.154L114.117 13.1812L114.107 5.16044L114.106 4.66044L113.606 4.66108L106.383 4.67027L105.883 4.6709L105.884 5.1709L105.919 32.5953ZM135.536 26.4148L114.134 26.442L114.125 19.7677L135.528 19.7404L135.536 26.4148Z" stroke="black"/>
</svg>
