<svg width="426" height="55" viewBox="0 0 426 55" fill="none" xmlns="http://www.w3.org/2000/svg">
<path d="M48.3917 41.3699L28.3595 41.3954L28.3461 30.8997L43.1305 30.8808L43.0985 5.71356L6.30684 5.76037L6.33886 30.9277L21.1797 30.9088L21.193 41.4046L1.38647 41.4298L1.39401 47.3548L48.3993 47.295L48.3917 41.3699ZM13.4417 25.2757L13.4242 11.5071L35.9958 11.4784L36.0133 25.247L13.4417 25.2757ZM65.4441 5.51584C57.6569 5.52575 52.0795 12.6147 52.1502 23.8157C52.1081 35.1016 57.7035 42.1481 65.4907 42.1382C70.4565 42.1319 74.5438 39.1924 76.8227 34.1109L87.5442 34.0972L87.5687 53.3395L94.6787 53.3304L94.6133 1.86727L87.5032 1.87632L87.5166 12.4285L76.2591 12.4428C73.9116 8.01616 70.0713 5.50995 65.4441 5.51584ZM59.0345 23.807C58.9966 16.1891 61.6152 12.01 65.4524 12.0052C69.3177 12.0002 71.8906 16.1727 71.9003 23.7906C71.91 31.4367 69.3478 35.6157 65.4824 35.5924C61.6453 35.6255 59.016 31.4531 59.0345 23.807ZM78.2697 18.2525L87.524 18.2407L87.5369 28.3415L78.4518 28.353C78.6757 26.9138 78.7866 25.3901 78.7846 23.7819C78.7821 21.8068 78.6104 19.9449 78.2697 18.2525ZM110.814 5.90955L103.76 5.91852L103.79 29.5622L113.27 29.5502L113.28 37.5913C108.738 37.6817 104.421 37.6872 100.64 37.692L101.607 43.5594C110.325 43.5201 121.893 43.4772 132.64 41.5449L132.126 36.2977C128.402 36.8103 124.424 37.1257 120.446 37.3282L120.437 29.5411L129.86 29.5291L129.83 5.88535L122.607 5.89454L122.615 12.3274L110.822 12.3424L110.814 5.90955ZM110.836 23.9104L110.829 17.816L122.622 17.801L122.63 23.8954L110.836 23.9104ZM134.856 53.1665L142.079 53.1573L142.047 28.3285L149.044 28.3196L149.037 22.3382L142.04 22.3471L142.014 1.80696L134.791 1.81615L134.856 53.1665ZM198.21 41.1793L187.771 41.1926L187.755 28.4679C191.617 26.0647 193.926 22.4786 193.949 18.0489C193.91 9.72564 185.693 4.26248 174.576 4.24841C163.403 4.29084 155.284 9.77478 155.295 18.098C155.301 22.6124 157.704 26.249 161.685 28.6421L161.701 41.2258L151.205 41.2391L151.213 47.1642L198.218 47.1044L198.21 41.1793ZM162.405 18.089C162.399 12.9258 167.219 9.92888 174.583 9.94773C181.834 9.91029 186.804 12.8947 186.839 18.0579C186.817 23.0801 181.855 26.19 174.604 26.1993C167.24 26.2086 162.411 23.1112 162.405 18.089ZM168.811 41.2167L168.798 31.257C170.604 31.5933 172.552 31.7883 174.611 31.7857C176.671 31.7831 178.646 31.5831 180.479 31.214L180.492 41.2019L168.811 41.2167ZM258.934 1.6582L252.05 1.66696L252.115 53.0173L259 53.0085L258.934 1.6582ZM214.892 23.9473C214.906 35.487 219.289 42.6197 226.088 42.611C232.408 42.603 236.717 36.4749 237.325 26.4016L241.473 26.3963L241.504 50.6607L248.275 50.6521L248.214 2.40542L241.442 2.41404L241.465 20.697L237.261 20.7023C236.459 11.1104 232.22 5.33186 226.041 5.36794C219.241 5.34838 214.877 12.464 214.892 23.9473ZM221.55 23.9388C221.484 16.067 223.172 12.1431 226.049 12.1394C229.012 12.1356 230.766 16.0552 230.748 23.9271C230.786 31.8271 229.042 35.7229 226.079 35.6703C223.202 35.7303 221.504 31.8389 221.55 23.9388ZM306.509 5.88628L269.718 5.93309L269.725 11.6888L299.463 11.651C299.437 13.6825 299.44 15.8832 299.302 18.3098L268.042 19.3653L269.065 25.5148L298.886 23.784C298.551 26.9162 298.02 30.3873 297.178 34.2819L304.233 35.0065C306.617 23.9152 306.495 16.636 306.515 10.457L306.509 5.88628ZM264.409 47.0766L311.245 47.017L311.238 41.1484L288.328 41.1775L288.312 28.7632L281.145 28.7723L281.161 41.1866L264.402 41.208L264.409 47.0766ZM356.189 23.6546L326.959 23.6918L326.936 5.52171L319.544 5.53112L319.574 29.5134L334.133 29.4949L334.148 41.2885L314.341 41.3137L314.349 47.0695L361.354 47.0097L361.347 41.2539L341.427 41.2793L341.412 29.4856L356.197 29.4668L356.189 23.6546ZM419.403 34.2393L404.562 34.2582L404.557 30.026L424.42 30.0007L424.413 24.245L377.577 24.3046L377.584 30.0603L397.391 30.0351L397.396 34.2673L382.612 34.2861L382.619 39.929L389.616 39.9201L389.624 46.2965L382.176 46.306L382.183 52.0618L419.99 52.0137L419.983 46.2579L412.534 46.2674L412.526 39.8909L419.41 39.8822L419.403 34.2393ZM379.88 16.1759L382.483 21.759C391.228 20.6193 397.684 16.9432 401.007 11.945C404.286 16.9066 410.724 20.5945 419.557 21.7118L422.089 16.1222C410.604 14.8107 404.7 8.9778 404.693 3.67348L404.691 1.98061L397.299 1.99002L397.301 3.68289C397.251 9.10013 391.333 14.7788 379.88 16.1759ZM396.734 46.2875L396.726 39.911L405.473 39.8999L405.481 46.2764L396.734 46.2875Z" stroke="black" stroke-width="1"/>
</svg>
